# xmcd
#
# Track frame offsets: 
#        224
#        4763
#        22581
#        40497
#        66843
#        89953
#        106079
#        136352
#        143130
#        161364
#        178187
#
# Disc length: 2610 seconds
#
# Revision: 0
# Processed by: cddbd v1.5.2PL0 Copyright (c) Steve Scherf et al.
# Submitted via: ExactAudioCopy v0.99pb4
#
DISCID=8e0a300b
DTITLE=Chelsea Crowell - Crystal City
DYEAR=2012
DGENRE=Country
TTITLE0=Move On
TTITLE1=I'm Gonna Freeze
TTITLE2=Baptized Part One
TTITLE3=Baptized Part Two
TTITLE4=For Stormy
TTITLE5=Don't Talk About The Girl
TTITLE6=Crystal City
TTITLE7=Crystal City Outro
TTITLE8=Memories Of You
TTITLE9=Better Than Her
TTITLE10=Remind Me
EXTD=
EXTT0=
EXTT1=
EXTT2=
EXTT3=
EXTT4=
EXTT5=
EXTT6=
EXTT7=
EXTT8=
EXTT9=
EXTT10=
PLAYORDER=
